<?xml version="1.0" encoding="UTF-8"?>
<svg width="58px" height="58px" viewBox="0 0 58 58" version="1.1" xmlns="http://www.w3.org/2000/svg" xmlns:xlink="http://www.w3.org/1999/xlink">
    <title>397FB277-F29B-48CD-8741-8C263C32FA7D</title>
    <g id="design" stroke="none" stroke-width="1" fill="none" fill-rule="evenodd">
        <g id="32_마이_FAQ" transform="translate(-66.000000, -1047.000000)" stroke="#ADADAD" stroke-width="2">
            <g id="ic-/-58-/-main-/-home-/-unselected" transform="translate(66.000000, 1047.000000)">
                <path d="M48.95084,42.11496 L48.95084,46.94752 C48.95084,48.2288206 47.9121406,49.26752 46.63084,49.26752 L41.31572,49.26752 L36.83232,49.26752 C35.5510194,49.26752 34.51232,48.2288206 34.51232,46.94752 L34.51232,40.77864 C34.51232,39.4973394 33.4736206,38.45864 32.19232,38.45864 L24.87968,38.45864 C23.5983794,38.45864 22.55968,39.4973394 22.55968,40.77864 L22.55968,46.94752 C22.55968,48.2288206 21.5209806,49.26752 20.23968,49.26752 L15.2772,49.26752 L10.44,49.26752 C9.15869938,49.26752 8.12,48.2288206 8.12,46.94752 L8.12,27.9501474 C8.12,26.9603327 8.54149867,26.0173508 9.27901132,25.3571932 L26.9886303,9.50507176 C27.869526,8.71656993 29.2024571,8.71658874 30.0833306,9.50511545 L47.7919019,25.3571997 C48.5293704,26.0173554 48.95084,26.960308 48.95084,27.9500884 L48.95084,37.14088 L48.95084,42.11496 Z" id="Stroke-1"></path>
            </g>
        </g>
    </g>
</svg>