<svg class="svg-icon" style="width: 1em; height: 1em;vertical-align: middle;fill: currentColor;overflow: hidden;" viewBox="0 0 1024 1024" version="1.1" xmlns="http://www.w3.org/2000/svg"><path d="M511.515 191.943c-176.736 0-319.979 114.11-319.979 254.856 0 89.481 57.924 168.142 145.513 213.611l-24.182 125.323 138.382-88.649a399.75 399.75 0 0 0 60.266 4.578c176.726 0 319.995-114.111 319.995-254.864-0.001-140.745-143.269-254.855-319.995-254.855z m-162.22 330.253c0 3.537-1.437 7.009-3.971 9.523a13.496 13.496 0 0 1-9.509 3.96h-3.023a13.49 13.49 0 0 1-9.522-3.977 13.479 13.479 0 0 1-3.96-9.506v-111.41h-32.79a14.37 14.37 0 0 1-7.538-2.122c-2.163-1.357-3.853-3.24-4.886-5.465-0.67-1.477-1.058-3.124-1.058-4.768 0-1.64 0.388-3.287 1.07-4.803a12.497 12.497 0 0 1 2.89-3.9c2.544-2.356 5.932-3.65 9.522-3.65h95.21c2.687 0 5.303 0.737 7.525 2.116 2.176 1.344 3.888 3.246 4.911 5.451a11.78 11.78 0 0 1 1.046 4.785c0 1.63-0.368 3.278-1.046 4.768a12.866 12.866 0 0 1-2.889 3.939c-2.58 2.348-5.944 3.65-9.547 3.65h-32.436v111.41z m159.498 6.92c-1.414 2.23-3.388 3.983-5.79 5.07l-2.795 1.255c-4.03 1.837-8.928 1.533-12.756-0.88a13.328 13.328 0 0 1-5.077-5.796L471.33 504.54h-62.207l-10.974 24.088a13.187 13.187 0 0 1-5.065 5.778c-3.829 2.427-8.762 2.74-12.781 0.898l-2.77-1.266a13.222 13.222 0 0 1-5.793-5.077 13.605 13.605 0 0 1-2.08-7.234c0-1.926 0.403-3.805 1.204-5.544l54.096-118.597 0.404-1.123a13.872 13.872 0 0 1 1.652-3.853c0.227-0.357 0.488-0.707 1.059-1.475a13.124 13.124 0 0 1 4.129-4.095 13.638 13.638 0 0 1 7.225-2.087c0.559 0 1.085 0.042 2.224 0.155 2.378 0.1 4.675 0.814 6.684 2.074 1.153 0.726 2.185 1.61 3.412 3.037 0.69 0.714 1.296 1.469 1.795 2.277a13.975 13.975 0 0 1 1.76 4.262l57.377 126.16-3.888 6.197z m114.759-0.314a11.988 11.988 0 0 1-2.56 3.27c-2.556 2.318-5.944 3.607-9.535 3.607h-78.53c-0.474 0-0.938-0.042-1.414-0.071-2.2-0.233-4.328-0.922-6.135-2.034-1.912-1.176-3.484-2.8-4.53-4.696l-1.368-2.205V399.546c0-3.535 1.451-7.012 3.972-9.521a13.46 13.46 0 0 1 9.51-3.947h3.068c3.52 0 6.981 1.433 9.49 3.965 2.509 2.491 3.947 5.968 3.947 9.503v111.763h61.99c2.687 0 5.303 0.728 7.514 2.075a14.734 14.734 0 0 1 2.952 2.451l5.373 6.023-3.744 6.944z m125.741-2.355a13.217 13.217 0 0 1-4.101 4.875l-2.437 1.801c-3.924 2.883-9.536 3.34-13.957 1.188a13.697 13.697 0 0 1-4.89-4.107l-42.313-57.796-17.787 18.55v31.238a13.51 13.51 0 0 1-3.971 9.523 13.497 13.497 0 0 1-9.51 3.96h-3.033a13.5 13.5 0 0 1-9.521-3.966 14.041 14.041 0 0 1-2.272-2.996l-1.689-3.056V399.546c0-3.535 1.44-7.012 3.96-9.521a13.516 13.516 0 0 1 9.522-3.947h3.08c3.508 0 6.955 1.433 9.488 3.965 2.508 2.491 3.948 5.968 3.948 9.503v48.068l55.117-57.47a13.23 13.23 0 0 1 4.518-3.09c4.758-1.975 10.691-0.97 14.52 2.686l2.21 2.123a13.406 13.406 0 0 1 3.1 4.505c0.67 1.64 1.01 3.416 1.01 5.24 0.027 3.49-1.328 6.788-3.718 9.3l-37.906 39.523 45.467 62.076c1.653 2.256 2.592 5.07 2.568 7.918 0 2.087-0.488 4.162-1.403 6.022z" fill="#F9E81E" /><path d="M420.264 480.171h39.974l-20.001-43.792z" fill="#F9E81E" /></svg>