<?xml version="1.0" encoding="UTF-8"?>
<svg width="58px" height="58px" viewBox="0 0 58 58" version="1.1" xmlns="http://www.w3.org/2000/svg" xmlns:xlink="http://www.w3.org/1999/xlink">
    <title>C7D40B97-3291-4446-82E5-EECCE994702B</title>
    <g id="design" stroke="none" stroke-width="1" fill="none" fill-rule="evenodd">
        <g id="32_마이_FAQ" transform="translate(-216.000000, -1047.000000)" stroke="#ADADAD" stroke-width="2">
            <g id="ic-/-58-/-main--/-location-/-unselected" transform="translate(216.000000, 1047.000000)">
                <path d="M35.5711832,30.4791173 C31.6657155,34.2106646 25.3339059,34.2106646 21.4288168,30.4791173 C17.5237277,26.7475701 17.5237277,20.6971457 21.4288168,16.9655984 C25.3339059,13.2336894 31.6657155,13.2336894 35.5711832,16.9655984 C39.4762723,20.6971457 39.4762723,26.7475701 35.5711832,30.4791173 Z M39.960693,10.9982443 C33.4351699,5.66582222 23.5584802,5.6675382 17.0343277,11.0016763 C9.96695265,16.7802544 9.10848749,26.4858632 14.4539066,33.2211027 L26.5176494,49.0437676 C27.489876,50.3187441 29.5092566,50.3187441 30.4814832,49.0437676 L42.5470535,33.2228187 C47.8933863,26.4862922 47.0312662,16.7759644 39.960693,10.9982443 Z" id="Stroke-1-Copy"></path>
            </g>
        </g>
    </g>
</svg>