<?xml version="1.0" encoding="UTF-8"?>
<svg width="100px" height="100px" viewBox="0 0 100 100" version="1.1" xmlns="http://www.w3.org/2000/svg" xmlns:xlink="http://www.w3.org/1999/xlink">
    <title>5922DA73-E27E-42B8-B8E3-137302E879AB</title>
    <g id="design" stroke="none" stroke-width="1" fill="none" fill-rule="evenodd">
        <g id="02_로그인_입력후" transform="translate(-270.000000, -224.000000)" stroke="#FFFFFF" stroke-width="5">
            <g id="img-/-100-/-logo-/-white" transform="translate(270.000000, 224.000000)">
                <g id="Group" transform="translate(17.000000, 4.000000)">
                    <path d="M46.5027192,44.8178128 C39.1113427,51.9407291 27.1279408,51.9407291 19.7372808,44.8178128 C12.3466207,37.6948966 12.3466207,26.1456213 19.7372808,19.0227051 C27.1279408,11.8990983 39.1113427,11.8990983 46.5027192,19.0227051 C53.8933793,26.1456213 53.8933793,37.6948966 46.5027192,44.8178128 Z M54.8101802,7.63199753 C42.4601615,-2.5467282 23.7678208,-2.54345266 11.4203961,7.6385486 C-1.95511589,18.6689135 -3.57982254,37.1953407 6.53676488,50.0518165 L29.3682598,80.254708 C31.2082682,82.6884307 35.0300901,82.6884307 36.8700985,80.254708 L59.7050521,50.0550921 C69.8233689,37.1961596 68.1917449,18.6607246 54.8101802,7.63199753 Z" id="Stroke-1-Copy-2"></path>
                </g>
            </g>
        </g>
    </g>
</svg>