<?xml version="1.0" encoding="UTF-8"?>
<svg width="58px" height="58px" viewBox="0 0 58 58" version="1.1" xmlns="http://www.w3.org/2000/svg" xmlns:xlink="http://www.w3.org/1999/xlink">
    <title>2F5E9E53-FD0D-4A19-A164-CC3639EC6790</title>
    <g id="design" stroke="none" stroke-width="1" fill="none" fill-rule="evenodd">
        <g id="32_마이_FAQ" transform="translate(-366.000000, -1047.000000)" stroke="#ADADAD" stroke-width="2">
            <g id="ic-/-58-/-main-/--like-/-unselected" transform="translate(366.000000, 1047.000000)">
                <path d="M37.343,40.549 C41.454,37.319 45.105,33.463 47.585,28.978 C47.623,28.908 47.659,28.841 47.694,28.778 L47.889,28.411 C48.611,26.977 49.016,25.356 49.016,23.641 C49.016,17.764 44.252,13 38.375,13 C34.399,13 30.927,15.184 29.1,18.415 C29.068,18.471 29.049,18.514 29.005,18.514 C28.956,18.514 28.946,18.474 28.915,18.42 C27.09,15.184 23.62,13 19.641,13 C13.764,13 9,17.764 9,23.641 C9,25.15 9.314,26.586 9.881,27.887 L9.899,27.987 C9.899,27.987 14.095,37.729 28.634,45.822 L29.008,45.991 C29.008,45.991 29.355,45.822 29.355,45.822 C32.082,44.304 34.801,42.546 37.343,40.549 Z" id="Stroke-1"></path>
            </g>
        </g>
    </g>
</svg>